<svg width="52" height="52" viewBox="0 0 52 52" fill="none" xmlns="http://www.w3.org/2000/svg">
<path d="M48.1812 30.8487C48.0456 30.47 47.8862 30.1002 47.7039 29.7416L39.2559 10.5219C39.1761 10.3368 39.0617 10.1686 38.9188 10.0263C38.3152 9.42258 37.5985 8.94366 36.8098 8.61691C36.0211 8.29016 35.1757 8.12198 34.322 8.12198C33.4683 8.12198 32.623 8.29016 31.8342 8.61691C31.0455 8.94366 30.3289 9.42258 29.7253 10.0263C29.4216 10.3303 29.2507 10.7422 29.25 11.1719V16.2501H22.75V11.1719C22.7502 10.9585 22.7083 10.7471 22.6267 10.5498C22.5452 10.3525 22.4255 10.1733 22.2747 10.0223C21.6711 9.41851 20.9545 8.93959 20.1658 8.61284C19.377 8.2861 18.5317 8.11792 17.678 8.11792C16.8243 8.11792 15.9789 8.2861 15.1902 8.61284C14.4015 8.93959 13.6849 9.41851 13.0813 10.0223C12.9383 10.1645 12.8239 10.3327 12.7441 10.5179L4.29609 29.7376C4.11382 30.0961 3.95438 30.4659 3.81875 30.8446C3.34039 32.1831 3.16046 33.6099 3.29156 35.0252C3.42267 36.4406 3.86164 37.8101 4.57772 39.0379C5.2938 40.2657 6.26967 41.3221 7.43698 42.1331C8.60428 42.9441 9.93479 43.4901 11.3353 43.7328C12.7358 43.9754 14.1724 43.909 15.5446 43.538C16.9167 43.1671 18.1911 42.5006 19.2785 41.5853C20.366 40.67 21.2402 39.528 21.8398 38.2393C22.4395 36.9507 22.7501 35.5464 22.75 34.1251V19.5001H29.25V34.1251C29.2493 35.5466 29.5594 36.9511 30.1587 38.2402C30.7579 39.5292 31.6318 40.6717 32.7191 41.5874C33.8064 42.5032 35.0808 43.1701 36.453 43.5414C37.8252 43.9128 39.262 43.9796 40.6627 43.7372C42.0634 43.4947 43.3942 42.949 44.5618 42.1381C45.7293 41.3272 46.7055 40.2707 47.4218 39.0429C48.1381 37.815 48.5772 36.4453 48.7084 35.0298C48.8396 33.6143 48.6597 32.1873 48.1812 30.8487ZM15.5817 12.1368C16.1235 11.6806 16.7995 11.4139 17.5068 11.3772C18.214 11.3406 18.914 11.536 19.5 11.9337V26.8654C18.2313 25.7261 16.6855 24.9403 15.0174 24.5867C13.3493 24.2331 11.6176 24.324 9.99578 24.8504L15.5817 12.1368ZM13 40.6251C11.7144 40.6251 10.4577 40.2438 9.38879 39.5296C8.31988 38.8154 7.48675 37.8002 6.99478 36.6125C6.50281 35.4248 6.37409 34.1179 6.6249 32.857C6.8757 31.5961 7.49477 30.4379 8.40381 29.5289C9.31285 28.6198 10.471 28.0008 11.7319 27.75C12.9928 27.4992 14.2997 27.6279 15.4874 28.1198C16.6752 28.6118 17.6903 29.4449 18.4046 30.5139C19.1188 31.5828 19.5 32.8395 19.5 34.1251C19.5 35.849 18.8152 37.5023 17.5962 38.7213C16.3772 39.9402 14.7239 40.6251 13 40.6251ZM32.5 11.9316C33.086 11.5339 33.786 11.3385 34.4933 11.3752C35.2005 11.4119 35.8765 11.6786 36.4183 12.1348L42.0042 24.8463C40.3822 24.3202 38.6504 24.2296 36.9823 24.5836C35.3143 24.9376 33.7685 25.7238 32.5 26.8633V11.9316ZM39 40.6251C37.7144 40.6251 36.4577 40.2438 35.3888 39.5296C34.3199 38.8154 33.4868 37.8002 32.9948 36.6125C32.5028 35.4248 32.3741 34.1179 32.6249 32.857C32.8757 31.5961 33.4948 30.4379 34.4038 29.5289C35.3128 28.6198 36.471 28.0008 37.7319 27.75C38.9928 27.4992 40.2997 27.6279 41.4874 28.1198C42.6752 28.6118 43.6903 29.4449 44.4046 30.5139C45.1188 31.5828 45.5 32.8395 45.5 34.1251C45.5 35.849 44.8152 37.5023 43.5962 38.7213C42.3772 39.9402 40.7239 40.6251 39 40.6251Z" fill="#989898"/>
</svg>
