<svg width="1277" height="186" viewBox="0 0 1277 186" fill="none" xmlns="http://www.w3.org/2000/svg">
<path d="M470.962 45.9927C469.235 42.6865 432.038 84.1066 413.656 105.23V73.0857C413.656 65.7385 370.336 117.935 348.677 144.951H615.148C611.472 142.043 604.364 135.424 602.358 133.471C576.627 108.415 580.538 128.649 572.866 125.435C566.727 122.863 561.356 65.8915 559.438 37.7271C540.976 56.8605 503.667 94.5765 502.132 92.3723C500.598 90.1681 497.816 78.5962 496.617 73.0857C494.459 73.7745 488.705 75.4277 482.95 76.5298C475.757 77.9074 473.12 50.1256 470.962 45.9927Z" fill="#CDCDCD"/>
<path d="M475.453 98.4407C472.601 97.1236 475.453 47.6552 472.183 40.9041L417.608 98.4407L412.854 66.7478L345.5 144.951H515.47L496.848 136.719C501.206 135.484 509.447 132.027 507.546 128.076C505.644 124.124 485.358 115.453 475.453 111.612C479.151 109.691 487.102 105.438 489.32 103.791C492.094 101.733 479.019 100.087 475.453 98.4407Z" fill="#E8E8E8"/>
<path d="M557.962 37.7271C554.149 41.715 549.256 46.7347 544.044 51.9388L501.57 95.3103L496.805 73.4684C499.32 75.5864 505.383 80.1401 509.513 81.4109C512.551 82.3459 529.534 66.4275 544.044 51.9388L557.962 37.7271Z" fill="#CDCDCD"/>
<path d="M215.242 37.727L0 146.937L456.298 144.554L414.6 89.3534C409.305 92.1333 402.289 102.856 389.184 102.856C380.512 102.856 347.618 36.8004 331.6 1.19141L242.975 56.5822C235.904 61.0013 226.572 58.5492 222.587 51.2252L215.242 37.727Z" fill="#CDCDCD"/>
<path d="M301.418 52.0235C297.288 47.258 319.819 14.1642 332.394 0C302.345 17.4735 244.391 54.4063 237.084 55.9948C229.777 57.5833 218.419 44.3457 214.845 36.5356L3.57397 145.348H327.232C323.525 141.906 313.173 132.799 301.418 123.903C286.725 112.784 329.614 99.6786 322.863 96.1045C317.462 93.2452 306.316 86.7059 301.418 83.7936L316.112 74.2626C312.935 68.8352 305.548 56.789 301.418 52.0235Z" fill="#E8E8E8"/>
<path d="M935.437 79.8564L860.175 145.355H1215.33L1146.98 96.5361L1130.31 103.859L1091.25 66.0244L979.781 118.911L960.66 79.8564L948.049 96.5361L935.437 79.8564Z" fill="#CDCDCD"/>
<path d="M1072.66 99.0338L1091.88 64.4159L980.5 120.393L959.702 78.5461L948.284 99.0338L934.012 78.5461L863.746 144.839H1100.99C1091.34 134.232 1071.68 118.127 1067.77 114.291C1063.85 110.455 1074.56 106.299 1080.41 104.701L1072.66 99.0338Z" fill="#E8E8E8" stroke="#E8E8E8"/>
<path d="M1222.79 111.799C1222.89 111.737 1223.02 111.737 1223.19 111.833C1223.5 112.015 1223.62 112.792 1223.68 113.118C1223.83 114.001 1223.92 114.888 1224.01 115.78C1224.28 118.221 1224.3 121.123 1226.24 122.931C1227.42 124.025 1229.05 124.346 1230.6 124.409C1230.97 124.423 1232.92 124.265 1234.28 124.193C1235.01 124.154 1235.58 124.145 1235.59 124.198C1235.71 124.629 1235.97 125.118 1235.49 125.353C1235.2 125.497 1234.87 125.593 1234.53 125.665C1233.48 125.886 1232.26 125.809 1231.27 125.814C1229.51 125.833 1227.71 125.617 1226.1 124.893C1222.38 123.224 1222.28 118.639 1222.32 115.161C1222.33 114.519 1222.09 112.207 1222.79 111.799Z" fill="white"/>
<path d="M1235.24 129.68C1234.68 129.776 1234.12 129.838 1233.56 129.881C1232.31 129.982 1231.08 130.073 1229.83 129.996C1227.71 129.872 1225.49 129.876 1223.53 128.931C1222.65 128.505 1221.88 127.886 1221.24 127.162C1219.99 125.752 1219.2 123.991 1218.66 122.212C1218.04 120.126 1217.74 117.939 1217.84 115.766C1217.86 115.138 1217.91 114.48 1218.02 113.838C1218.13 113.161 1218.31 112.5 1218.59 111.89C1218.78 111.488 1219.24 110.946 1219.72 110.864C1220.57 110.725 1219.8 112.874 1219.74 113.219C1219.49 114.715 1219.43 116.351 1219.57 117.862C1219.73 119.627 1220.16 121.373 1220.84 123.008C1221.7 125.037 1223.13 126.888 1225.22 127.742C1227.72 128.764 1230.46 128.572 1233.1 128.5C1233.24 128.495 1234.28 128.442 1235.03 128.452C1235.45 128.457 1235.77 128.481 1235.79 128.548C1235.87 128.864 1236.03 129.243 1235.96 129.565C1235.71 129.617 1235.48 129.646 1235.24 129.68ZM1241.62 143.79C1241.2 143.565 1241.11 142.869 1241 142.462C1240.36 140.14 1239 131.258 1239 131.258C1238.72 129.258 1238.46 127.258 1238.22 125.253C1237.36 118.341 1236.44 111.387 1235.84 104.485C1235.41 99.6122 1235.52 93.7991 1238.17 89.5257C1238.45 89.0797 1239.15 88.0053 1239.82 88.2595L1240.05 88.4993C1240.17 88.859 1239.98 89.2427 1239.84 89.5641C1239.3 90.7631 1239 92.1109 1238.7 93.3867C1237.26 99.4155 1238.16 105.555 1238.6 111.651C1239.16 119.411 1242.38 142.303 1242.38 142.303C1242.45 142.788 1242.59 144.299 1241.62 143.79ZM1246.12 143.761C1245.66 143.56 1245.7 143.128 1245.64 142.701C1245.07 138.107 1244.83 133.469 1244.38 128.855C1244.15 126.471 1243.95 124.087 1243.77 121.699C1243.13 113.08 1242.67 104.437 1242.39 95.7992C1242.37 94.9886 1242.37 94.178 1242.37 93.3675C1242.37 92.0821 1242.43 90.6624 1242.61 89.3818C1242.68 88.8926 1242.72 88.6 1243.25 88.4705C1244.07 88.2739 1244.29 89.2091 1244.45 89.8087C1245.31 93.0174 1245.22 96.6001 1245.26 99.8999C1245.36 108.293 1245.49 116.696 1246.03 125.08C1246.39 130.644 1246.79 136.227 1246.96 141.8C1246.97 142.284 1247.06 144.155 1246.12 143.761ZM1252.5 123.689C1252.34 129.541 1252.37 135.45 1251.52 141.253C1251.46 141.68 1251.46 142.38 1251.06 142.653C1250.17 143.272 1250.12 141.757 1250.13 141.267C1250.13 141.267 1251.11 118.6 1250.71 110.826C1250.4 104.73 1250.46 99.3867 1247.89 93.1852C1247.39 91.9766 1246.98 90.6624 1246.29 89.5353C1246.11 89.2379 1245.87 88.8782 1245.96 88.5041L1246.16 88.2403C1246.78 87.9046 1247.61 88.883 1247.94 89.2907C1251.1 93.2092 1252.51 98.8496 1252.69 105.253C1252.88 112.054 1252.7 116.883 1252.5 123.689ZM1255.11 114.596C1255.13 114.572 1255.13 114.528 1255.14 114.504C1255.27 114.265 1255.65 114.073 1255.88 113.948C1255.96 113.905 1256.05 113.857 1256.13 113.819C1259 112.26 1262.97 111.046 1264.43 107.9C1265.26 106.082 1264.94 103.78 1264.98 101.785C1265.03 99.1805 1264.88 96.6097 1265.18 94.0102C1265.23 93.6025 1265.74 89.3914 1266.72 90.3027C1267.23 90.7727 1266.9 91.8711 1266.85 92.4802C1266.77 93.4586 1266.75 94.437 1266.76 95.4155C1266.78 97.3148 1266.9 99.2141 1266.85 101.113C1266.83 102.082 1266.88 103.051 1266.88 104.015C1266.88 107.857 1265.62 110.749 1262.09 112.5C1260.33 113.363 1258.78 114.385 1256.94 115.109C1256.71 115.2 1256.4 115.349 1256.09 115.44C1255.82 115.516 1255.54 115.564 1255.33 115.468C1255.19 115.411 1255.12 115.277 1255.09 115.128C1255.04 114.946 1255.06 114.749 1255.11 114.596Z" fill="white"/>
<path d="M1272.36 101.339C1272.2 104.869 1272.2 108.562 1270.62 111.814C1269.78 113.55 1268.44 114.749 1266.93 115.915C1264.26 118.006 1261.12 119.363 1258.03 120.696C1257.59 120.888 1256.55 121.425 1255.86 121.421C1255.45 121.421 1255.16 121.224 1255.18 120.653C1255.2 120.289 1255.38 119.943 1255.72 119.78C1255.79 119.747 1255.87 119.708 1255.95 119.675C1256.3 119.507 1256.67 119.349 1257.02 119.171C1258.1 118.615 1259.21 118.116 1260.3 117.588C1262.89 116.337 1265.81 114.912 1267.66 112.639L1267.78 112.485C1268.1 112.073 1268.38 111.646 1268.64 111.2C1269.7 109.329 1270.19 107.2 1270.39 105.07C1270.67 102.063 1270.8 98.9791 1270.56 95.9671C1270.48 94.9071 1270.35 93.8519 1270.13 92.8112C1270.08 92.5905 1270 92.3507 1269.92 92.1061C1269.73 91.5018 1269.49 90.8447 1269.55 90.2979C1269.6 89.8999 1269.8 89.5258 1270.25 89.66C1271.89 90.1397 1272.18 93.5834 1272.32 94.9263C1272.56 97.0606 1272.45 99.2045 1272.36 101.339Z" fill="white"/>
<path d="M1275.87 92.1972C1275.19 88.8446 1272.78 86.2067 1268.86 86.1923C1265.79 86.1827 1262.95 88.154 1262.1 90.6816C1261.19 93.3867 1261.76 97.7033 1261.78 100.495C1261.8 102.447 1262.03 104.005 1261.29 105.871C1260.7 107.368 1259.52 108.471 1258.24 109.387C1257.58 109.862 1256.91 110.322 1256.24 110.778C1256.65 99.0174 1256.82 85.9093 1244.05 86.0005C1229.85 86.1012 1230.88 100.768 1231.96 109.483C1232.31 112.375 1233 116.682 1233.75 121.152C1232.91 121.171 1232.11 121.224 1231.78 121.186C1230.89 121.08 1229.96 120.807 1229.33 120.159C1228.56 119.382 1228.61 118.461 1228.31 117.492C1227.63 115.353 1227.43 113.056 1226.2 111.114C1225.47 109.934 1224.4 109.152 1223.07 108.739L1223.01 108.72C1218.7 107.531 1215.51 111.281 1215.08 115.267C1214.75 118.433 1215.47 121.929 1216.82 124.783C1217.91 127.066 1219.29 129.574 1221.48 130.955C1225.52 133.497 1231.18 132.912 1235.72 132.351C1235.77 132.644 1235.82 132.932 1235.87 133.205C1236.58 137.095 1236.72 141.651 1237.99 143.229C1239.37 144.932 1242.5 146.831 1245.89 146.831C1249.83 146.831 1252.27 144.989 1253.53 142.543C1254.36 140.927 1254.8 136.059 1255.03 133.33C1255.21 131.138 1255.42 128.366 1255.61 125.517C1258.03 124.5 1263.84 121.991 1267.97 119.761C1273.29 116.879 1274.53 111.814 1275.09 108.576C1275.65 105.334 1276.61 95.78 1275.87 92.1972ZM1222.79 111.799C1222.89 111.737 1223.02 111.737 1223.19 111.833C1223.5 112.015 1223.62 112.792 1223.68 113.118C1223.83 114.001 1223.92 114.888 1224.01 115.78C1224.28 118.222 1224.31 121.123 1226.24 122.931C1227.42 124.025 1229.05 124.346 1230.6 124.409C1230.97 124.423 1232.92 124.265 1234.28 124.193C1235.01 124.154 1235.58 124.145 1235.59 124.198C1235.72 124.629 1235.97 125.118 1235.49 125.353C1235.2 125.497 1234.87 125.593 1234.53 125.665C1233.48 125.886 1232.26 125.809 1231.27 125.814C1229.51 125.833 1227.72 125.617 1226.1 124.893C1222.38 123.224 1222.28 118.639 1222.32 115.162C1222.33 114.519 1222.09 112.207 1222.79 111.799ZM1235.24 129.68C1234.68 129.776 1234.12 129.838 1233.56 129.881C1232.31 129.982 1231.08 130.073 1229.83 129.996C1227.71 129.872 1225.49 129.876 1223.53 128.931C1222.65 128.505 1221.88 127.886 1221.24 127.162C1219.99 125.752 1219.2 123.991 1218.66 122.212C1218.04 120.126 1217.74 117.939 1217.83 115.766C1217.86 115.138 1217.91 114.48 1218.02 113.838C1218.13 113.161 1218.3 112.5 1218.59 111.89C1218.78 111.488 1219.24 110.946 1219.72 110.864C1220.57 110.725 1219.8 112.874 1219.74 113.219C1219.49 114.715 1219.43 116.351 1219.57 117.862C1219.73 119.627 1220.16 121.373 1220.84 123.008C1221.7 125.037 1223.13 126.888 1225.22 127.742C1227.72 128.764 1230.46 128.572 1233.1 128.5C1233.24 128.495 1234.28 128.442 1235.03 128.452C1235.45 128.457 1235.77 128.481 1235.79 128.548C1235.87 128.864 1236.03 129.243 1235.96 129.565C1235.71 129.617 1235.48 129.646 1235.24 129.68ZM1241.62 143.79C1241.2 143.565 1241.11 142.869 1241 142.462C1240.36 140.14 1239 131.258 1239 131.258C1238.72 129.258 1238.46 127.258 1238.22 125.253C1237.36 118.341 1236.44 111.387 1235.84 104.485C1235.41 99.6122 1235.52 93.7991 1238.17 89.5257C1238.45 89.0796 1239.15 88.0053 1239.82 88.2595L1240.05 88.4993C1240.17 88.859 1239.98 89.2427 1239.84 89.5641C1239.3 90.7631 1239 92.1109 1238.7 93.3867C1237.26 99.4155 1238.16 105.555 1238.6 111.651C1239.16 119.411 1242.38 142.303 1242.38 142.303C1242.45 142.788 1242.59 144.299 1241.62 143.79ZM1246.12 143.761C1245.66 143.56 1245.7 143.128 1245.64 142.701C1245.07 138.107 1244.83 133.469 1244.38 128.855C1244.15 126.471 1243.95 124.087 1243.77 121.699C1243.13 113.08 1242.67 104.437 1242.39 95.7992C1242.37 94.9886 1242.37 94.178 1242.37 93.3675C1242.37 92.0821 1242.43 90.6624 1242.61 89.3818C1242.68 88.8926 1242.72 88.6 1243.25 88.4705C1244.07 88.2739 1244.29 89.2091 1244.45 89.8087C1245.31 93.0173 1245.22 96.6001 1245.25 99.8999C1245.36 108.293 1245.49 116.696 1246.03 125.08C1246.39 130.644 1246.79 136.227 1246.96 141.8C1246.97 142.284 1247.06 144.155 1246.12 143.761ZM1252.5 123.689C1252.34 129.541 1252.37 135.45 1251.52 141.253C1251.46 141.68 1251.46 142.38 1251.06 142.653C1250.17 143.272 1250.12 141.757 1250.13 141.267C1250.13 141.267 1251.11 118.6 1250.71 110.826C1250.4 104.73 1250.46 99.3867 1247.89 93.1852C1247.39 91.9766 1246.98 90.6624 1246.29 89.5353C1246.11 89.2379 1245.87 88.8782 1245.96 88.5041L1246.16 88.2403C1246.78 87.9046 1247.61 88.883 1247.94 89.2907C1251.1 93.2092 1252.51 98.8496 1252.69 105.253C1252.88 112.054 1252.7 116.883 1252.5 123.689ZM1255.11 114.596C1255.13 114.572 1255.13 114.528 1255.14 114.504C1255.27 114.265 1255.65 114.073 1255.88 113.948C1255.96 113.905 1256.05 113.857 1256.13 113.819C1259 112.26 1262.97 111.046 1264.43 107.9C1265.26 106.082 1264.94 103.78 1264.98 101.785C1265.03 99.1805 1264.88 96.6097 1265.18 94.0102C1265.23 93.6025 1265.74 89.3914 1266.72 90.3027C1267.23 90.7727 1266.9 91.8711 1266.85 92.4802C1266.77 93.4586 1266.75 94.437 1266.76 95.4155C1266.78 97.3148 1266.9 99.2141 1266.85 101.113C1266.83 102.082 1266.88 103.051 1266.88 104.015C1266.88 107.857 1265.62 110.749 1262.08 112.5C1260.33 113.363 1258.78 114.385 1256.94 115.109C1256.71 115.2 1256.4 115.349 1256.08 115.44C1255.82 115.516 1255.54 115.564 1255.33 115.468C1255.19 115.411 1255.12 115.277 1255.09 115.128C1255.04 114.946 1255.06 114.749 1255.11 114.596ZM1272.36 101.339C1272.2 104.869 1272.2 108.562 1270.62 111.814C1269.78 113.55 1268.44 114.749 1266.93 115.915C1264.26 118.006 1261.12 119.363 1258.03 120.696C1257.59 120.888 1256.55 121.425 1255.86 121.421C1255.45 121.421 1255.16 121.224 1255.18 120.653C1255.2 120.289 1255.38 119.943 1255.72 119.78C1255.79 119.747 1255.87 119.708 1255.95 119.675C1256.3 119.507 1256.67 119.349 1257.02 119.171C1258.1 118.615 1259.21 118.116 1260.3 117.588C1262.89 116.337 1265.81 114.912 1267.66 112.639L1267.78 112.485C1268.1 112.073 1268.38 111.646 1268.64 111.2C1269.7 109.329 1270.19 107.2 1270.39 105.07C1270.67 102.063 1270.8 98.9791 1270.56 95.967C1270.48 94.9071 1270.35 93.8519 1270.13 92.8111C1270.08 92.5905 1270 92.3507 1269.92 92.1061C1269.73 91.5017 1269.49 90.8447 1269.55 90.2979C1269.6 89.8998 1269.8 89.5257 1270.25 89.66C1271.89 90.1396 1272.18 93.5833 1272.32 94.9262C1272.56 97.0606 1272.45 99.2045 1272.36 101.339Z" fill="#CDCDCD"/>
<path d="M64.235 104.889C64.1163 104.814 63.9705 104.814 63.787 104.929C63.4362 105.147 63.3013 106.077 63.2366 106.468C63.0692 107.524 62.9667 108.587 62.8588 109.655C62.5619 112.578 62.5296 116.052 60.3492 118.217C59.0215 119.526 57.192 119.911 55.4434 119.985C55.0278 120.003 52.8366 119.813 51.3093 119.727C50.4836 119.681 49.8467 119.67 49.8305 119.733C49.6902 120.25 49.4042 120.835 49.9385 121.117C50.2731 121.289 50.6401 121.404 51.0233 121.49C52.2106 121.754 53.5814 121.662 54.6878 121.668C56.6685 121.691 58.6923 121.432 60.5111 120.565C64.6991 118.567 64.8071 113.077 64.7585 108.914C64.7531 108.145 65.0229 105.377 64.235 104.889Z" fill="white"/>
<path d="M50.2245 126.296C50.8559 126.411 51.482 126.486 52.1188 126.537C53.5166 126.658 54.909 126.767 56.3122 126.675C58.7031 126.526 61.1965 126.532 63.4038 125.4C64.3915 124.889 65.255 124.149 65.9836 123.282C67.3814 121.593 68.2719 119.486 68.8763 117.355C69.5833 114.857 69.9126 112.239 69.81 109.638C69.7776 108.885 69.7237 108.099 69.6049 107.329C69.4754 106.52 69.2811 105.727 68.9573 104.998C68.7414 104.515 68.2341 103.867 67.6944 103.769C66.7337 103.602 67.5973 106.175 67.6674 106.588C67.9427 108.38 68.0128 110.338 67.8563 112.147C67.6728 114.26 67.1979 116.351 66.4261 118.309C65.4655 120.738 63.8572 122.954 61.5041 123.976C58.6869 125.199 55.6052 124.97 52.6369 124.884C52.475 124.878 51.3039 124.815 50.4619 124.826C49.9924 124.832 49.6254 124.861 49.6038 124.941C49.5175 125.32 49.3394 125.774 49.4203 126.158C49.6956 126.222 49.96 126.256 50.2245 126.296ZM43.0411 143.19C43.5215 142.92 43.6186 142.088 43.7481 141.6C44.4659 138.82 45.9987 128.186 45.9987 128.186C46.3117 125.791 46.5977 123.396 46.873 120.996C47.839 112.721 48.8698 104.395 49.5499 96.1316C50.0302 90.2974 49.9114 83.3377 46.9269 78.2212C46.6139 77.6872 45.826 76.4009 45.0758 76.7052L44.8167 76.9923C44.6764 77.423 44.8869 77.8824 45.0542 78.2671C45.6586 79.7027 45.9933 81.3163 46.3279 82.8438C47.947 90.062 46.9431 97.4122 46.4466 104.711C45.8152 114.002 42.1938 141.41 42.1938 141.41C42.1075 141.99 41.9563 143.799 43.0411 143.19ZM37.9788 143.156C38.5023 142.915 38.4591 142.398 38.5185 141.887C39.1607 136.386 39.436 130.833 39.9433 125.309C40.1969 122.455 40.429 119.601 40.6233 116.741C41.3465 106.422 41.8592 96.0742 42.1776 85.7322C42.2046 84.7618 42.2046 83.7913 42.1992 82.8208C42.1992 81.2819 42.1344 79.5821 41.9348 78.0489C41.8538 77.4632 41.8052 77.1129 41.2116 76.9579C40.2941 76.7224 40.0458 77.8422 39.8623 78.56C38.8909 82.4016 38.9988 86.6912 38.9556 90.6419C38.8369 100.691 38.6912 110.752 38.0867 120.789C37.682 127.451 37.2286 134.135 37.0397 140.807C37.0235 141.387 36.921 143.627 37.9788 143.156ZM30.8008 119.124C30.9843 126.13 30.952 133.204 31.9072 140.153C31.9774 140.664 31.9774 141.502 32.4199 141.829C33.4292 142.57 33.4831 140.756 33.4669 140.17C33.4669 140.17 32.366 113.031 32.8139 103.723C33.1701 96.4245 33.0999 90.0275 35.9873 82.6026C36.554 81.1556 37.0181 79.5821 37.7899 78.2327C37.995 77.8767 38.2594 77.446 38.1677 76.9981L37.941 76.6823C37.2394 76.2803 36.3003 77.4517 35.9333 77.9398C32.3821 82.6313 30.79 89.3844 30.5904 97.0504C30.3745 105.193 30.5796 110.976 30.8008 119.124ZM27.8649 108.237C27.8487 108.208 27.8433 108.156 27.8271 108.127C27.6814 107.84 27.255 107.611 27.0014 107.461C26.9096 107.41 26.8125 107.352 26.7207 107.306C23.4934 105.44 19.0247 103.987 17.384 100.22C16.4449 98.0439 16.8011 95.2875 16.758 92.8987C16.704 89.7806 16.8767 86.7027 16.5313 83.5903C16.4773 83.1022 15.9053 78.0604 14.7989 79.1515C14.2268 79.7142 14.6046 81.0292 14.6586 81.7585C14.7503 82.9299 14.7665 84.1014 14.7557 85.2728C14.7395 87.5468 14.6046 89.8208 14.6532 92.0948C14.6801 93.2547 14.6262 94.4147 14.6262 95.5689C14.6262 100.169 16.0402 103.631 20.0177 105.727C21.993 106.761 23.7362 107.984 25.8033 108.851C26.0623 108.96 26.4185 109.138 26.7693 109.247C27.0715 109.339 27.3792 109.397 27.622 109.282C27.7732 109.213 27.8541 109.052 27.8919 108.874C27.9405 108.656 27.9243 108.42 27.8649 108.237Z" fill="white"/>
<path d="M8.45759 92.3647C8.64109 96.5911 8.63569 101.013 10.4113 104.906C11.3611 106.985 12.8723 108.42 14.5615 109.816C17.573 112.319 21.1026 113.945 24.5783 115.541C25.0802 115.771 26.2459 116.414 27.0231 116.408C27.4872 116.408 27.8111 116.173 27.7841 115.489C27.7679 115.053 27.5574 114.639 27.185 114.444C27.0987 114.404 27.0123 114.358 26.926 114.318C26.5266 114.117 26.111 113.927 25.7116 113.715C24.5027 113.049 23.256 112.452 22.0309 111.82C19.1166 110.321 15.8298 108.616 13.7466 105.894L13.6063 105.71C13.2501 105.216 12.9317 104.705 12.6456 104.171C11.4475 101.932 10.897 99.3819 10.6703 96.8323C10.3519 93.2318 10.2116 89.5395 10.476 85.9333C10.5678 84.6642 10.7135 83.4009 10.9672 82.1548C11.0265 81.8907 11.1075 81.6036 11.1992 81.3107C11.4205 80.5872 11.685 79.8005 11.6148 79.1458C11.5662 78.6692 11.3342 78.2213 10.8322 78.3821C8.98649 78.9563 8.65728 83.0793 8.49537 84.6872C8.23092 87.2426 8.34965 89.8094 8.45759 92.3647Z" fill="white"/>
<path d="M4.50149 81.4197C5.27326 77.4058 7.98253 74.2475 12.3972 74.2303C15.8513 74.2188 19.0463 76.5789 19.9961 79.6051C21.027 82.8438 20.3793 88.0119 20.3577 91.354C20.3415 93.6911 20.0771 95.5574 20.9082 97.7912C21.5721 99.5828 22.8997 100.904 24.3407 102C25.0909 102.569 25.841 103.12 26.5966 103.666C26.1325 89.5853 25.9436 73.8915 40.3103 74.0006C56.2906 74.1212 55.1303 91.6813 53.9214 102.115C53.522 105.578 52.7502 110.734 51.9029 116.086C52.8474 116.109 53.7433 116.172 54.1211 116.127C55.1195 116 56.1611 115.673 56.8735 114.898C57.737 113.967 57.6831 112.865 58.0231 111.705C58.7894 109.144 59.0161 106.393 60.3923 104.068C61.2235 102.655 62.4216 101.719 63.9219 101.225L63.9813 101.202C68.8386 99.778 72.4221 104.269 72.9079 109.04C73.2856 112.83 72.4761 117.017 70.9488 120.433C69.7291 123.167 68.1747 126.17 65.7083 127.824C61.1641 130.867 54.7957 130.167 49.6848 129.495C49.6308 129.845 49.5714 130.19 49.5121 130.517C48.7187 135.174 48.5622 140.629 47.1266 142.518C45.5777 144.557 42.0535 146.831 38.2378 146.831C33.8069 146.831 31.0653 144.626 29.6459 141.697C28.7122 139.762 28.2103 133.934 27.9566 130.666C27.7516 128.042 27.5141 124.723 27.3036 121.312C24.5836 120.095 18.0424 117.091 13.4011 114.421C7.41045 110.97 6.01804 104.906 5.38659 101.03C4.74975 97.148 3.67576 85.7092 4.50149 81.4197ZM64.235 104.889C64.1162 104.814 63.9705 104.814 63.787 104.929C63.4362 105.147 63.3013 106.077 63.2365 106.468C63.0692 107.524 62.9667 108.587 62.8587 109.655C62.5619 112.578 62.5295 116.052 60.3492 118.217C59.0215 119.526 57.1919 119.911 55.4433 119.985C55.0278 120.003 52.8366 119.813 51.3093 119.727C50.4835 119.681 49.8467 119.67 49.8305 119.733C49.6902 120.25 49.4041 120.835 49.9384 121.117C50.273 121.289 50.64 121.404 51.0232 121.49C52.2105 121.754 53.5814 121.662 54.6878 121.668C56.6684 121.691 58.6923 121.433 60.5111 120.565C64.6991 118.567 64.807 113.077 64.7585 108.914C64.7531 108.145 65.0229 105.377 64.235 104.889ZM50.2245 126.296C50.8559 126.411 51.482 126.486 52.1188 126.537C53.5166 126.658 54.909 126.767 56.3122 126.675C58.7031 126.526 61.1965 126.532 63.4038 125.4C64.3915 124.889 65.255 124.149 65.9836 123.282C67.3814 121.593 68.2719 119.486 68.8763 117.355C69.5833 114.857 69.9126 112.239 69.81 109.638C69.7776 108.885 69.7237 108.099 69.6049 107.329C69.4754 106.52 69.2811 105.727 68.9573 104.998C68.7414 104.515 68.2341 103.867 67.6944 103.769C66.7337 103.602 67.5973 106.175 67.6674 106.588C67.9427 108.38 68.0128 110.338 67.8563 112.147C67.6728 114.26 67.1979 116.351 66.4261 118.309C65.4655 120.738 63.8572 122.954 61.5041 123.976C58.6869 125.199 55.6052 124.97 52.6369 124.884C52.475 124.878 51.3039 124.815 50.4619 124.826C49.9924 124.832 49.6254 124.861 49.6038 124.941C49.5175 125.32 49.3394 125.774 49.4203 126.158C49.6956 126.222 49.96 126.256 50.2245 126.296ZM43.0411 143.19C43.5215 142.92 43.6186 142.088 43.7481 141.6C44.4659 138.82 45.9987 128.186 45.9987 128.186C46.3117 125.791 46.5977 123.396 46.873 120.996C47.839 112.721 48.8698 104.395 49.5499 96.1316C50.0302 90.2974 49.9114 83.3377 46.9269 78.2212C46.6139 77.6872 45.826 76.4009 45.0758 76.7052L44.8167 76.9923C44.6764 77.423 44.8869 77.8824 45.0542 78.2671C45.6586 79.7027 45.9933 81.3163 46.3279 82.8438C47.947 90.062 46.9431 97.4122 46.4466 104.711C45.8152 114.002 42.1938 141.41 42.1938 141.41C42.1075 141.99 41.9563 143.799 43.0411 143.19ZM37.9788 143.156C38.5023 142.915 38.4591 142.398 38.5185 141.887C39.1607 136.386 39.436 130.833 39.9433 125.309C40.1969 122.455 40.429 119.601 40.6233 116.741C41.3465 106.422 41.8592 96.0742 42.1776 85.7322C42.2046 84.7618 42.2046 83.7913 42.1992 82.8208C42.1992 81.2819 42.1344 79.5821 41.9348 78.0489C41.8538 77.4632 41.8052 77.1129 41.2116 76.9579C40.2941 76.7224 40.0458 77.8422 39.8623 78.56C38.8909 82.4016 38.9988 86.6912 38.9556 90.6419C38.8369 100.691 38.6912 110.752 38.0867 120.789C37.682 127.451 37.2286 134.135 37.0397 140.807C37.0235 141.387 36.921 143.627 37.9788 143.156ZM30.8008 119.124C30.9843 126.13 30.952 133.204 31.9072 140.153C31.9774 140.664 31.9774 141.502 32.4199 141.829C33.4292 142.57 33.4831 140.756 33.4669 140.17C33.4669 140.17 32.366 113.031 32.8139 103.723C33.1701 96.4245 33.0999 90.0275 35.9873 82.6026C36.554 81.1556 37.0181 79.5821 37.7899 78.2327C37.995 77.8767 38.2594 77.446 38.1677 76.9981L37.941 76.6823C37.2394 76.2803 36.3003 77.4517 35.9333 77.9398C32.3821 82.6313 30.7901 89.3844 30.5904 97.0504C30.3745 105.193 30.5796 110.976 30.8008 119.124ZM27.8649 108.237C27.8487 108.208 27.8433 108.156 27.8271 108.127C27.6814 107.84 27.255 107.611 27.0014 107.461C26.9096 107.41 26.8125 107.352 26.7207 107.306C23.4934 105.44 19.0247 103.987 17.384 100.22C16.445 98.0438 16.8011 95.2875 16.758 92.8987C16.704 89.7806 16.8767 86.7027 16.5313 83.5903C16.4773 83.1022 15.9053 78.0604 14.7989 79.1515C14.2268 79.7142 14.6046 81.0292 14.6586 81.7585C14.7503 82.9299 14.7665 84.1014 14.7557 85.2728C14.7395 87.5468 14.6046 89.8208 14.6532 92.0948C14.6801 93.2547 14.6262 94.4147 14.6262 95.5689C14.6262 100.169 16.0402 103.631 20.0177 105.727C21.993 106.761 23.7362 107.984 25.8033 108.851C26.0623 108.96 26.4185 109.138 26.7693 109.247C27.0715 109.339 27.3792 109.397 27.622 109.282C27.7732 109.213 27.8541 109.052 27.8919 108.874C27.9405 108.656 27.9243 108.42 27.8649 108.237ZM8.45746 92.3646C8.64096 96.591 8.63556 101.013 10.4112 104.906C11.361 106.985 12.8722 108.42 14.5614 109.816C17.5729 112.319 21.1025 113.944 24.5782 115.541C25.0801 115.771 26.2458 116.414 27.023 116.408C27.4871 116.408 27.8109 116.172 27.7839 115.489C27.7678 115.053 27.5573 114.639 27.1849 114.444C27.0985 114.404 27.0122 114.358 26.9258 114.318C26.5265 114.117 26.1109 113.927 25.7115 113.715C24.5026 113.049 23.2559 112.451 22.0308 111.82C19.1164 110.321 15.8297 108.616 13.7465 105.894L13.6062 105.71C13.25 105.216 12.9315 104.705 12.6455 104.171C11.4474 101.931 10.8969 99.3818 10.6702 96.8322C10.3518 93.2317 10.2115 89.5394 10.4759 85.9332C10.5677 84.6641 10.7134 83.4008 10.967 82.1547C11.0264 81.8906 11.1074 81.6035 11.1991 81.3106C11.4204 80.5871 11.6848 79.8004 11.6147 79.1457C11.5661 78.6691 11.334 78.2212 10.8321 78.382C8.98636 78.9562 8.65715 83.0792 8.49524 84.6871C8.23079 87.2425 8.34952 89.8093 8.45746 92.3646Z" fill="#CDCDCD"/>
</svg>
