<svg width="1297" height="147" viewBox="0 0 1297 147" fill="none" xmlns="http://www.w3.org/2000/svg">
<path d="M491.156 45.9927C489.43 42.6865 452.233 84.1066 433.85 105.23V73.0857C433.85 65.7385 390.531 117.935 368.872 144.951H635.343C631.667 142.043 624.559 135.424 622.553 133.471C596.822 108.415 600.733 128.649 593.06 125.435C586.922 122.863 581.551 65.8915 579.633 37.7271C561.171 56.8605 523.862 94.5765 522.327 92.3723C520.793 90.1681 518.011 78.5962 516.812 73.0857C514.654 73.7745 508.9 75.4277 503.145 76.5298C495.952 77.9074 493.314 50.1256 491.156 45.9927Z" fill="#CDCDCD"/>
<path d="M495.648 98.4407C492.796 97.1236 495.648 47.6552 492.378 40.9041L437.803 98.4407L433.049 66.7478L365.695 144.951H535.665L517.043 136.719C521.401 135.484 529.642 132.027 527.741 128.076C525.839 124.124 505.553 115.453 495.648 111.612C499.346 109.691 507.297 105.438 509.515 103.791C512.289 101.733 499.214 100.087 495.648 98.4407Z" fill="#E8E8E8"/>
<path d="M578.157 37.7271C574.344 41.715 569.451 46.7347 564.239 51.9388L521.765 95.3103L517 73.4684C519.515 75.5864 525.577 80.1401 529.708 81.4109C532.746 82.3459 549.729 66.4275 564.239 51.9388L578.157 37.7271Z" fill="#CDCDCD"/>
<path d="M235.437 37.727L20.1948 146.937L476.493 144.554L434.794 89.3534C429.499 92.1333 422.484 102.856 409.378 102.856C400.707 102.856 367.813 36.8004 351.795 1.19141L263.17 56.5822C256.099 61.0013 246.767 58.5492 242.782 51.2252L235.437 37.727Z" fill="#CDCDCD"/>
<path d="M321.613 52.0235C317.483 47.258 340.014 14.1642 352.589 0C322.54 17.4735 264.586 54.4063 257.279 55.9948C249.972 57.5833 238.614 44.3457 235.04 36.5356L23.7688 145.348H347.427C343.72 141.906 333.368 132.799 321.613 123.903C306.919 112.784 349.809 99.6786 343.058 96.1045C337.657 93.2452 326.511 86.7059 321.613 83.7936L336.307 74.2626C333.13 68.8352 325.743 56.789 321.613 52.0235Z" fill="#E8E8E8"/>
<path d="M955.632 79.8564L880.37 145.355H1235.53L1167.18 96.5361L1150.5 103.859L1111.44 66.0244L999.976 118.911L980.855 79.8564L968.244 96.5361L955.632 79.8564Z" fill="#CDCDCD"/>
<path d="M1092.85 99.0338L1112.07 64.4159L1000.69 120.393L979.897 78.5461L968.479 99.0338L954.207 78.5461L883.941 144.839H1121.19C1111.54 134.232 1091.88 118.127 1087.96 114.291C1084.05 110.455 1094.76 106.299 1100.6 104.701L1092.85 99.0338Z" fill="#E8E8E8" stroke="#E8E8E8"/>
<path d="M1242.98 111.799C1243.09 111.737 1243.22 111.737 1243.38 111.833C1243.69 112.015 1243.81 112.792 1243.87 113.118C1244.02 114.001 1244.11 114.888 1244.21 115.78C1244.47 118.221 1244.5 121.123 1246.44 122.931C1247.62 124.025 1249.24 124.346 1250.8 124.409C1251.17 124.423 1253.11 124.265 1254.47 124.193C1255.2 124.154 1255.77 124.145 1255.79 124.198C1255.91 124.629 1256.16 125.118 1255.69 125.353C1255.39 125.497 1255.07 125.593 1254.73 125.665C1253.67 125.886 1252.45 125.809 1251.47 125.814C1249.71 125.833 1247.91 125.617 1246.29 124.893C1242.57 123.224 1242.48 118.639 1242.52 115.161C1242.52 114.519 1242.28 112.207 1242.98 111.799Z" fill="white"/>
<path d="M1255.44 129.68C1254.87 129.776 1254.32 129.838 1253.75 129.881C1252.51 129.982 1251.27 130.073 1250.03 129.996C1247.9 129.872 1245.68 129.876 1243.72 128.931C1242.85 128.505 1242.08 127.886 1241.43 127.162C1240.19 125.752 1239.4 123.991 1238.86 122.212C1238.23 120.126 1237.94 117.939 1238.03 115.766C1238.06 115.138 1238.11 114.48 1238.21 113.838C1238.33 113.161 1238.5 112.5 1238.79 111.89C1238.98 111.488 1239.43 110.946 1239.91 110.864C1240.76 110.725 1240 112.874 1239.93 113.219C1239.69 114.715 1239.63 116.351 1239.77 117.862C1239.93 119.627 1240.35 121.373 1241.04 123.008C1241.89 125.037 1243.32 126.888 1245.41 127.742C1247.92 128.764 1250.65 128.572 1253.29 128.5C1253.44 128.495 1254.48 128.442 1255.22 128.452C1255.64 128.457 1255.97 128.481 1255.99 128.548C1256.06 128.864 1256.22 129.243 1256.15 129.565C1255.91 129.617 1255.67 129.646 1255.44 129.68ZM1261.82 143.79C1261.39 143.565 1261.31 142.869 1261.19 142.462C1260.55 140.14 1259.19 131.258 1259.19 131.258C1258.91 129.258 1258.66 127.258 1258.41 125.253C1257.56 118.341 1256.64 111.387 1256.04 104.485C1255.61 99.6122 1255.71 93.7991 1258.37 89.5257C1258.64 89.0797 1259.34 88.0053 1260.01 88.2595L1260.24 88.4993C1260.37 88.859 1260.18 89.2427 1260.03 89.5641C1259.49 90.7631 1259.2 92.1109 1258.9 93.3867C1257.46 99.4155 1258.35 105.555 1258.79 111.651C1259.35 119.411 1262.57 142.303 1262.57 142.303C1262.65 142.788 1262.78 144.299 1261.82 143.79ZM1266.32 143.761C1265.85 143.56 1265.89 143.128 1265.84 142.701C1265.27 138.107 1265.02 133.469 1264.57 128.855C1264.35 126.471 1264.14 124.087 1263.97 121.699C1263.33 113.08 1262.87 104.437 1262.59 95.7992C1262.56 94.9886 1262.56 94.178 1262.57 93.3675C1262.57 92.0821 1262.63 90.6624 1262.8 89.3818C1262.87 88.8926 1262.92 88.6 1263.45 88.4705C1264.26 88.2739 1264.48 89.2091 1264.64 89.8087C1265.51 93.0174 1265.41 96.6001 1265.45 99.8999C1265.56 108.293 1265.69 116.696 1266.22 125.08C1266.58 130.644 1266.98 136.227 1267.15 141.8C1267.17 142.284 1267.26 144.155 1266.32 143.761ZM1272.7 123.689C1272.53 129.541 1272.56 135.45 1271.71 141.253C1271.65 141.68 1271.65 142.38 1271.26 142.653C1270.36 143.272 1270.31 141.757 1270.33 141.267C1270.33 141.267 1271.31 118.6 1270.91 110.826C1270.59 104.73 1270.65 99.3867 1268.09 93.1852C1267.58 91.9766 1267.17 90.6624 1266.49 89.5353C1266.3 89.2379 1266.07 88.8782 1266.15 88.5041L1266.35 88.2403C1266.98 87.9046 1267.81 88.883 1268.14 89.2907C1271.29 93.2092 1272.71 98.8496 1272.88 105.253C1273.08 112.054 1272.89 116.883 1272.7 123.689ZM1275.31 114.596C1275.32 114.572 1275.33 114.528 1275.34 114.504C1275.47 114.265 1275.85 114.073 1276.07 113.948C1276.16 113.905 1276.24 113.857 1276.32 113.819C1279.19 112.26 1283.16 111.046 1284.62 107.9C1285.46 106.082 1285.14 103.78 1285.18 101.785C1285.22 99.1805 1285.07 96.6097 1285.38 94.0102C1285.43 93.6025 1285.93 89.3914 1286.92 90.3027C1287.43 90.7727 1287.09 91.8711 1287.04 92.4802C1286.96 93.4586 1286.95 94.437 1286.96 95.4155C1286.97 97.3148 1287.09 99.2141 1287.05 101.113C1287.02 102.082 1287.07 103.051 1287.07 104.015C1287.07 107.857 1285.81 110.749 1282.28 112.5C1280.52 113.363 1278.98 114.385 1277.14 115.109C1276.91 115.2 1276.59 115.349 1276.28 115.44C1276.01 115.516 1275.74 115.564 1275.52 115.468C1275.39 115.411 1275.32 115.277 1275.28 115.128C1275.24 114.946 1275.25 114.749 1275.31 114.596Z" fill="white"/>
<path d="M1292.55 101.339C1292.39 104.869 1292.39 108.562 1290.82 111.814C1289.97 113.55 1288.63 114.749 1287.13 115.915C1284.45 118.006 1281.32 119.363 1278.23 120.696C1277.78 120.888 1276.74 121.425 1276.05 121.421C1275.64 121.421 1275.35 121.224 1275.38 120.653C1275.39 120.289 1275.58 119.943 1275.91 119.78C1275.99 119.747 1276.06 119.708 1276.14 119.675C1276.5 119.507 1276.86 119.349 1277.22 119.171C1278.29 118.615 1279.4 118.116 1280.49 117.588C1283.08 116.337 1286 114.912 1287.85 112.639L1287.98 112.485C1288.29 112.073 1288.58 111.646 1288.83 111.2C1289.9 109.329 1290.39 107.2 1290.59 105.07C1290.87 102.063 1290.99 98.9791 1290.76 95.9671C1290.68 94.9071 1290.55 93.8519 1290.32 92.8112C1290.27 92.5905 1290.2 92.3507 1290.12 92.1061C1289.92 91.5018 1289.68 90.8447 1289.75 90.2979C1289.79 89.8999 1290 89.5258 1290.44 89.66C1292.08 90.1397 1292.38 93.5834 1292.52 94.9263C1292.75 97.0606 1292.65 99.2045 1292.55 101.339Z" fill="white"/>
<path d="M1296.07 92.1972C1295.38 88.8446 1292.98 86.2067 1289.05 86.1923C1285.98 86.1827 1283.14 88.154 1282.3 90.6816C1281.38 93.3867 1281.96 97.7033 1281.98 100.495C1281.99 102.447 1282.23 104.005 1281.49 105.871C1280.9 107.368 1279.72 108.471 1278.44 109.387C1277.77 109.862 1277.1 110.322 1276.43 110.778C1276.85 99.0174 1277.01 85.9093 1264.25 86.0005C1250.04 86.1012 1251.08 100.768 1252.15 109.483C1252.5 112.375 1253.19 116.682 1253.94 121.152C1253.1 121.171 1252.31 121.224 1251.97 121.186C1251.09 121.08 1250.16 120.807 1249.53 120.159C1248.76 119.382 1248.81 118.461 1248.5 117.492C1247.82 115.353 1247.62 113.056 1246.4 111.114C1245.66 109.934 1244.6 109.152 1243.26 108.739L1243.21 108.72C1238.89 107.531 1235.71 111.281 1235.28 115.267C1234.94 118.433 1235.66 121.929 1237.02 124.783C1238.1 127.066 1239.48 129.574 1241.67 130.955C1245.71 133.497 1251.37 132.912 1255.91 132.351C1255.96 132.644 1256.02 132.932 1256.07 133.205C1256.77 137.095 1256.91 141.651 1258.19 143.229C1259.56 144.932 1262.7 146.831 1266.09 146.831C1270.03 146.831 1272.46 144.989 1273.72 142.543C1274.55 140.927 1275 136.059 1275.22 133.33C1275.41 131.138 1275.62 128.366 1275.8 125.517C1278.22 124.5 1284.04 121.991 1288.16 119.761C1293.48 116.879 1294.72 111.814 1295.28 108.576C1295.85 105.334 1296.8 95.78 1296.07 92.1972ZM1242.98 111.799C1243.09 111.737 1243.22 111.737 1243.38 111.833C1243.69 112.015 1243.81 112.792 1243.87 113.118C1244.02 114.001 1244.11 114.888 1244.21 115.78C1244.47 118.222 1244.5 121.123 1246.44 122.931C1247.62 124.025 1249.24 124.346 1250.8 124.409C1251.17 124.423 1253.11 124.265 1254.47 124.193C1255.21 124.154 1255.77 124.145 1255.79 124.198C1255.91 124.629 1256.16 125.118 1255.69 125.353C1255.39 125.497 1255.07 125.593 1254.73 125.665C1253.67 125.886 1252.45 125.809 1251.47 125.814C1249.71 125.833 1247.91 125.617 1246.29 124.893C1242.57 123.224 1242.48 118.639 1242.52 115.162C1242.52 114.519 1242.28 112.207 1242.98 111.799ZM1255.44 129.68C1254.87 129.776 1254.32 129.838 1253.75 129.881C1252.51 129.982 1251.27 130.073 1250.03 129.996C1247.9 129.872 1245.68 129.876 1243.72 128.931C1242.85 128.505 1242.08 127.886 1241.43 127.162C1240.19 125.752 1239.4 123.991 1238.86 122.212C1238.23 120.126 1237.94 117.939 1238.03 115.766C1238.06 115.138 1238.11 114.48 1238.21 113.838C1238.33 113.161 1238.5 112.5 1238.79 111.89C1238.98 111.488 1239.43 110.946 1239.91 110.864C1240.76 110.725 1240 112.874 1239.93 113.219C1239.69 114.715 1239.63 116.351 1239.77 117.862C1239.93 119.627 1240.35 121.373 1241.04 123.008C1241.89 125.037 1243.32 126.888 1245.41 127.742C1247.91 128.764 1250.65 128.572 1253.29 128.5C1253.44 128.495 1254.48 128.442 1255.22 128.452C1255.64 128.457 1255.97 128.481 1255.99 128.548C1256.06 128.864 1256.22 129.243 1256.15 129.565C1255.91 129.617 1255.67 129.646 1255.44 129.68ZM1261.82 143.79C1261.39 143.565 1261.31 142.869 1261.19 142.462C1260.55 140.14 1259.19 131.258 1259.19 131.258C1258.91 129.258 1258.66 127.258 1258.41 125.253C1257.56 118.341 1256.64 111.387 1256.03 104.485C1255.61 99.6122 1255.71 93.7991 1258.37 89.5257C1258.64 89.0796 1259.34 88.0053 1260.01 88.2595L1260.24 88.4993C1260.37 88.859 1260.18 89.2427 1260.03 89.5641C1259.49 90.7631 1259.2 92.1109 1258.9 93.3867C1257.46 99.4155 1258.35 105.555 1258.79 111.651C1259.35 119.411 1262.57 142.303 1262.57 142.303C1262.65 142.788 1262.78 144.299 1261.82 143.79ZM1266.32 143.761C1265.85 143.56 1265.89 143.128 1265.84 142.701C1265.27 138.107 1265.02 133.469 1264.57 128.855C1264.35 126.471 1264.14 124.087 1263.97 121.699C1263.33 113.08 1262.87 104.437 1262.59 95.7992C1262.56 94.9886 1262.56 94.178 1262.57 93.3675C1262.57 92.0821 1262.62 90.6624 1262.8 89.3818C1262.87 88.8926 1262.92 88.6 1263.44 88.4705C1264.26 88.2739 1264.48 89.2091 1264.64 89.8087C1265.51 93.0173 1265.41 96.6001 1265.45 99.8999C1265.56 108.293 1265.68 116.696 1266.22 125.08C1266.58 130.644 1266.98 136.227 1267.15 141.8C1267.17 142.284 1267.26 144.155 1266.32 143.761ZM1272.7 123.689C1272.53 129.541 1272.56 135.45 1271.71 141.253C1271.65 141.68 1271.65 142.38 1271.26 142.653C1270.36 143.272 1270.31 141.757 1270.33 141.267C1270.33 141.267 1271.31 118.6 1270.91 110.826C1270.59 104.73 1270.65 99.3867 1268.09 93.1852C1267.58 91.9766 1267.17 90.6624 1266.49 89.5353C1266.3 89.2379 1266.07 88.8782 1266.15 88.5041L1266.35 88.2403C1266.97 87.9046 1267.81 88.883 1268.14 89.2907C1271.29 93.2092 1272.71 98.8496 1272.88 105.253C1273.08 112.054 1272.89 116.883 1272.7 123.689ZM1275.31 114.596C1275.32 114.572 1275.33 114.528 1275.34 114.504C1275.47 114.265 1275.85 114.073 1276.07 113.948C1276.15 113.905 1276.24 113.857 1276.32 113.819C1279.19 112.26 1283.16 111.046 1284.62 107.9C1285.45 106.082 1285.14 103.78 1285.18 101.785C1285.22 99.1805 1285.07 96.6097 1285.38 94.0102C1285.43 93.6025 1285.93 89.3914 1286.92 90.3027C1287.43 90.7727 1287.09 91.8711 1287.04 92.4802C1286.96 93.4586 1286.95 94.437 1286.96 95.4155C1286.97 97.3148 1287.09 99.2141 1287.05 101.113C1287.02 102.082 1287.07 103.051 1287.07 104.015C1287.07 107.857 1285.81 110.749 1282.28 112.5C1280.52 113.363 1278.98 114.385 1277.14 115.109C1276.91 115.2 1276.59 115.349 1276.28 115.44C1276.01 115.516 1275.74 115.564 1275.52 115.468C1275.39 115.411 1275.32 115.277 1275.28 115.128C1275.24 114.946 1275.25 114.749 1275.31 114.596ZM1292.55 101.339C1292.39 104.869 1292.39 108.562 1290.82 111.814C1289.97 113.55 1288.63 114.749 1287.13 115.915C1284.45 118.006 1281.32 119.363 1278.23 120.696C1277.78 120.888 1276.74 121.425 1276.05 121.421C1275.64 121.421 1275.35 121.224 1275.38 120.653C1275.39 120.289 1275.58 119.943 1275.91 119.78C1275.99 119.747 1276.06 119.708 1276.14 119.675C1276.5 119.507 1276.86 119.349 1277.22 119.171C1278.29 118.615 1279.4 118.116 1280.49 117.588C1283.08 116.337 1286 114.912 1287.85 112.639L1287.98 112.485C1288.29 112.073 1288.58 111.646 1288.83 111.2C1289.9 109.329 1290.39 107.2 1290.59 105.07C1290.87 102.063 1290.99 98.9791 1290.76 95.967C1290.68 94.9071 1290.55 93.8519 1290.32 92.8111C1290.27 92.5905 1290.2 92.3507 1290.12 92.1061C1289.92 91.5017 1289.69 90.8447 1289.75 90.2979C1289.79 89.8998 1290 89.5257 1290.44 89.66C1292.08 90.1396 1292.38 93.5833 1292.52 94.9262C1292.75 97.0606 1292.65 99.2045 1292.55 101.339Z" fill="#CDCDCD"/>
<path d="M694.43 104.889C694.311 104.814 694.165 104.814 693.982 104.929C693.631 105.147 693.496 106.077 693.431 106.468C693.264 107.524 693.162 108.587 693.054 109.655C692.757 112.578 692.724 116.052 690.544 118.217C689.216 119.526 687.387 119.911 685.638 119.985C685.223 120.003 683.031 119.813 681.504 119.727C680.678 119.681 680.042 119.67 680.025 119.733C679.885 120.25 679.599 120.835 680.133 121.117C680.468 121.289 680.835 121.404 681.218 121.49C682.405 121.754 683.776 121.662 684.883 121.668C686.863 121.691 688.887 121.432 690.706 120.565C694.894 118.567 695.002 113.077 694.953 108.914C694.948 108.145 695.218 105.377 694.43 104.889Z" fill="white"/>
<path d="M680.42 126.296C681.051 126.411 681.677 126.486 682.314 126.537C683.712 126.658 685.104 126.767 686.507 126.675C688.898 126.526 691.392 126.532 693.599 125.4C694.587 124.889 695.45 124.149 696.179 123.282C697.576 121.593 698.467 119.486 699.071 117.355C699.778 114.857 700.108 112.239 700.005 109.638C699.973 108.885 699.919 108.099 699.8 107.329C699.67 106.52 699.476 105.727 699.152 104.998C698.936 104.515 698.429 103.867 697.889 103.769C696.929 103.602 697.792 106.175 697.862 106.588C698.138 108.38 698.208 110.338 698.051 112.147C697.868 114.26 697.393 116.351 696.621 118.309C695.661 120.738 694.052 122.954 691.699 123.976C688.882 125.199 685.8 124.97 682.832 124.884C682.67 124.878 681.499 124.815 680.657 124.826C680.187 124.832 679.82 124.861 679.799 124.941C679.713 125.32 679.534 125.774 679.615 126.158C679.891 126.222 680.155 126.256 680.42 126.296ZM673.236 143.19C673.717 142.92 673.814 142.088 673.943 141.6C674.661 138.82 676.194 128.186 676.194 128.186C676.507 125.791 676.793 123.396 677.068 120.996C678.034 112.721 679.065 104.395 679.745 96.1316C680.225 90.2974 680.107 83.3377 677.122 78.2212C676.809 77.6872 676.021 76.4009 675.271 76.7052L675.012 76.9923C674.871 77.423 675.082 77.8824 675.249 78.2671C675.854 79.7027 676.188 81.3163 676.523 82.8438C678.142 90.062 677.138 97.4122 676.642 104.711C676.01 114.002 672.389 141.41 672.389 141.41C672.303 141.99 672.151 143.799 673.236 143.19ZM668.174 143.156C668.697 142.915 668.654 142.398 668.714 141.887C669.356 136.386 669.631 130.833 670.138 125.309C670.392 122.455 670.624 119.601 670.818 116.741C671.542 106.422 672.054 96.0742 672.373 85.7322C672.4 84.7618 672.4 83.7913 672.394 82.8208C672.394 81.2819 672.33 79.5821 672.13 78.0489C672.049 77.4632 672 77.1129 671.407 76.9579C670.489 76.7224 670.241 77.8422 670.057 78.56C669.086 82.4016 669.194 86.6912 669.151 90.6419C669.032 100.691 668.886 110.752 668.282 120.789C667.877 127.451 667.424 134.135 667.235 140.807C667.219 141.387 667.116 143.627 668.174 143.156ZM660.996 119.124C661.179 126.13 661.147 133.204 662.102 140.153C662.172 140.664 662.172 141.502 662.615 141.829C663.624 142.57 663.678 140.756 663.662 140.17C663.662 140.17 662.561 113.031 663.009 103.723C663.365 96.4245 663.295 90.0275 666.182 82.6026C666.749 81.1556 667.213 79.5821 667.985 78.2327C668.19 77.8767 668.454 77.446 668.363 76.9981L668.136 76.6823C667.434 76.2803 666.495 77.4517 666.128 77.9398C662.577 82.6313 660.985 89.3844 660.785 97.0504C660.57 105.193 660.775 110.976 660.996 119.124ZM658.06 108.237C658.044 108.208 658.038 108.156 658.022 108.127C657.876 107.84 657.45 107.611 657.196 107.461C657.105 107.41 657.008 107.352 656.916 107.306C653.688 105.44 649.22 103.987 647.579 100.22C646.64 98.0438 646.996 95.2875 646.953 92.8987C646.899 89.7806 647.072 86.7027 646.726 83.5903C646.672 83.1022 646.1 78.0604 644.994 79.1515C644.422 79.7142 644.8 81.0292 644.854 81.7585C644.945 82.9299 644.962 84.1014 644.951 85.2728C644.935 87.5468 644.8 89.8208 644.848 92.0948C644.875 93.2547 644.821 94.4147 644.821 95.5689C644.821 100.169 646.235 103.631 650.213 105.727C652.188 106.761 653.931 107.984 655.998 108.851C656.257 108.96 656.614 109.138 656.964 109.247C657.267 109.339 657.574 109.397 657.817 109.282C657.968 109.213 658.049 109.052 658.087 108.874C658.136 108.656 658.119 108.42 658.06 108.237Z" fill="white"/>
<path d="M638.652 92.3647C638.836 96.5911 638.831 101.013 640.606 104.906C641.556 106.985 643.067 108.42 644.756 109.816C647.768 112.319 651.297 113.945 654.773 115.541C655.275 115.771 656.441 116.414 657.218 116.408C657.682 116.408 658.006 116.173 657.979 115.489C657.963 115.053 657.752 114.639 657.38 114.444C657.293 114.404 657.207 114.358 657.121 114.318C656.721 114.117 656.306 113.927 655.906 113.715C654.698 113.049 653.451 112.452 652.226 111.82C649.311 110.321 646.025 108.616 643.941 105.894L643.801 105.71C643.445 105.216 643.126 104.705 642.84 104.171C641.642 101.932 641.092 99.3819 640.865 96.8323C640.547 93.2318 640.406 89.5395 640.671 85.9333C640.763 84.6642 640.908 83.4009 641.162 82.1548C641.221 81.8907 641.302 81.6036 641.394 81.3107C641.615 80.5872 641.88 79.8005 641.81 79.1458C641.761 78.6692 641.529 78.2213 641.027 78.3821C639.181 78.9563 638.852 83.0793 638.69 84.6872C638.426 87.2426 638.544 89.8094 638.652 92.3647Z" fill="white"/>
<path d="M634.696 81.4197C635.468 77.4058 638.177 74.2475 642.592 74.2303C646.046 74.2188 649.241 76.5789 650.191 79.6051C651.222 82.8438 650.574 88.0119 650.553 91.354C650.536 93.6911 650.272 95.5574 651.103 97.7912C651.767 99.5828 653.095 100.904 654.536 102C655.286 102.569 656.036 103.12 656.791 103.666C656.327 89.5853 656.138 73.8915 670.505 74.0006C686.485 74.1212 685.325 91.6813 684.116 102.115C683.717 105.578 682.945 110.734 682.098 116.086C683.042 116.109 683.938 116.172 684.316 116.127C685.314 116 686.356 115.673 687.068 114.898C687.932 113.967 687.878 112.865 688.218 111.705C688.984 109.144 689.211 106.393 690.587 104.068C691.418 102.655 692.616 101.719 694.117 101.225L694.176 101.202C699.033 99.778 702.617 104.269 703.103 109.04C703.48 112.83 702.671 117.017 701.144 120.433C699.924 123.167 698.37 126.17 695.903 127.824C691.359 130.867 684.991 130.167 679.88 129.495C679.826 129.845 679.766 130.19 679.707 130.517C678.914 135.174 678.757 140.629 677.321 142.518C675.773 144.557 672.248 146.831 668.433 146.831C664.002 146.831 661.26 144.626 659.841 141.697C658.907 139.762 658.405 133.934 658.151 130.666C657.946 128.042 657.709 124.723 657.498 121.312C654.778 120.095 648.237 117.091 643.596 114.421C637.605 110.97 636.213 104.906 635.581 101.03C634.945 97.148 633.871 85.7092 634.696 81.4197ZM694.43 104.889C694.311 104.814 694.165 104.814 693.982 104.929C693.631 105.147 693.496 106.077 693.431 106.468C693.264 107.524 693.161 108.587 693.054 109.655C692.757 112.578 692.724 116.052 690.544 118.217C689.216 119.526 687.387 119.911 685.638 119.985C685.223 120.003 683.031 119.813 681.504 119.727C680.678 119.681 680.042 119.67 680.025 119.733C679.885 120.25 679.599 120.835 680.133 121.117C680.468 121.289 680.835 121.404 681.218 121.49C682.405 121.754 683.776 121.662 684.883 121.668C686.863 121.691 688.887 121.433 690.706 120.565C694.894 118.567 695.002 113.077 694.953 108.914C694.948 108.145 695.218 105.377 694.43 104.889ZM680.419 126.296C681.051 126.411 681.677 126.486 682.314 126.537C683.711 126.658 685.104 126.767 686.507 126.675C688.898 126.526 691.391 126.532 693.599 125.4C694.586 124.889 695.45 124.149 696.178 123.282C697.576 121.593 698.467 119.486 699.071 117.355C699.778 114.857 700.107 112.239 700.005 109.638C699.972 108.885 699.918 108.099 699.8 107.329C699.67 106.52 699.476 105.727 699.152 104.998C698.936 104.515 698.429 103.867 697.889 103.769C696.929 103.602 697.792 106.175 697.862 106.588C698.137 108.38 698.208 110.338 698.051 112.147C697.868 114.26 697.393 116.351 696.621 118.309C695.66 120.738 694.052 122.954 691.699 123.976C688.882 125.199 685.8 124.97 682.832 124.884C682.67 124.878 681.499 124.815 680.657 124.826C680.187 124.832 679.82 124.861 679.799 124.941C679.712 125.32 679.534 125.774 679.615 126.158C679.89 126.222 680.155 126.256 680.419 126.296ZM673.236 143.19C673.716 142.92 673.813 142.088 673.943 141.6C674.661 138.82 676.193 128.186 676.193 128.186C676.507 125.791 676.793 123.396 677.068 120.996C678.034 112.721 679.065 104.395 679.745 96.1316C680.225 90.2974 680.106 83.3377 677.122 78.2212C676.809 77.6872 676.021 76.4009 675.271 76.7052L675.012 76.9923C674.871 77.423 675.082 77.8824 675.249 78.2671C675.853 79.7027 676.188 81.3163 676.523 82.8438C678.142 90.062 677.138 97.4122 676.641 104.711C676.01 114.002 672.389 141.41 672.389 141.41C672.302 141.99 672.151 143.799 673.236 143.19ZM668.174 143.156C668.697 142.915 668.654 142.398 668.713 141.887C669.356 136.386 669.631 130.833 670.138 125.309C670.392 122.455 670.624 119.601 670.818 116.741C671.541 106.422 672.054 96.0742 672.372 85.7322C672.399 84.7618 672.399 83.7913 672.394 82.8208C672.394 81.2819 672.329 79.5821 672.13 78.0489C672.049 77.4632 672 77.1129 671.406 76.9579C670.489 76.7224 670.241 77.8422 670.057 78.56C669.086 82.4016 669.194 86.6912 669.15 90.6419C669.032 100.691 668.886 110.752 668.282 120.789C667.877 127.451 667.423 134.135 667.235 140.807C667.218 141.387 667.116 143.627 668.174 143.156ZM660.996 119.124C661.179 126.13 661.147 133.204 662.102 140.153C662.172 140.664 662.172 141.502 662.615 141.829C663.624 142.57 663.678 140.756 663.662 140.17C663.662 140.17 662.561 113.031 663.009 103.723C663.365 96.4245 663.295 90.0275 666.182 82.6026C666.749 81.1556 667.213 79.5821 667.985 78.2327C668.19 77.8767 668.454 77.446 668.363 76.9981L668.136 76.6823C667.434 76.2803 666.495 77.4517 666.128 77.9398C662.577 82.6313 660.985 89.3844 660.785 97.0504C660.569 105.193 660.774 110.976 660.996 119.124ZM658.06 108.237C658.044 108.208 658.038 108.156 658.022 108.127C657.876 107.84 657.45 107.611 657.196 107.461C657.104 107.41 657.007 107.352 656.916 107.306C653.688 105.44 649.22 103.987 647.579 100.22C646.64 98.0438 646.996 95.2875 646.953 92.8987C646.899 89.7806 647.072 86.7027 646.726 83.5903C646.672 83.1022 646.1 78.0604 644.994 79.1515C644.422 79.7142 644.799 81.0292 644.853 81.7585C644.945 82.9299 644.961 84.1014 644.951 85.2728C644.934 87.5468 644.799 89.8208 644.848 92.0948C644.875 93.2547 644.821 94.4147 644.821 95.5689C644.821 100.169 646.235 103.631 650.213 105.727C652.188 106.761 653.931 107.984 655.998 108.851C656.257 108.96 656.613 109.138 656.964 109.247C657.266 109.339 657.574 109.397 657.817 109.282C657.968 109.213 658.049 109.052 658.087 108.874C658.135 108.656 658.119 108.42 658.06 108.237ZM638.652 92.3646C638.836 96.591 638.83 101.013 640.606 104.906C641.556 106.985 643.067 108.42 644.756 109.816C647.768 112.319 651.297 113.944 654.773 115.541C655.275 115.771 656.441 116.414 657.218 116.408C657.682 116.408 658.006 116.172 657.979 115.489C657.963 115.053 657.752 114.639 657.38 114.444C657.293 114.404 657.207 114.358 657.121 114.318C656.721 114.117 656.306 113.927 655.906 113.715C654.697 113.049 653.451 112.451 652.226 111.82C649.311 110.321 646.025 108.616 643.941 105.894L643.801 105.71C643.445 105.216 643.126 104.705 642.84 104.171C641.642 101.931 641.092 99.3818 640.865 96.8322C640.547 93.2317 640.406 89.5394 640.671 85.9332C640.762 84.6641 640.908 83.4008 641.162 82.1547C641.221 81.8906 641.302 81.6035 641.394 81.3106C641.615 80.5871 641.88 79.8004 641.81 79.1457C641.761 78.6691 641.529 78.2212 641.027 78.382C639.181 78.9562 638.852 83.0792 638.69 84.6871C638.426 87.2425 638.544 89.8093 638.652 92.3646Z" fill="#CDCDCD"/>
<path d="M45.3746 115.13C45.2849 115.074 45.1747 115.074 45.036 115.16C44.7709 115.325 44.6689 116.028 44.62 116.324C44.4935 117.122 44.416 117.925 44.3344 118.732C44.1101 120.942 44.0856 123.567 42.4376 125.204C41.4342 126.193 40.0513 126.484 38.7297 126.54C38.4156 126.553 36.7594 126.41 35.605 126.345C34.9809 126.31 34.4996 126.302 34.4874 126.349C34.3813 126.74 34.1651 127.183 34.5689 127.395C34.8218 127.526 35.0992 127.612 35.3889 127.678C36.2863 127.877 37.3224 127.808 38.1586 127.812C39.6556 127.829 41.1853 127.634 42.56 126.979C45.7254 125.468 45.807 121.319 45.7703 118.172C45.7662 117.591 45.9702 115.499 45.3746 115.13Z" fill="white"/>
<path d="M34.7849 131.31C35.2622 131.397 35.7354 131.454 36.2167 131.493C37.2732 131.584 38.3256 131.666 39.3862 131.597C41.1933 131.484 43.0778 131.488 44.7462 130.633C45.4927 130.247 46.1454 129.687 46.6961 129.032C47.7526 127.756 48.4256 126.163 48.8825 124.553C49.4169 122.665 49.6657 120.685 49.5882 118.719C49.5637 118.151 49.5229 117.556 49.4332 116.975C49.3353 116.363 49.1884 115.764 48.9437 115.212C48.7805 114.848 48.3971 114.357 47.9891 114.284C47.2631 114.158 47.9157 116.102 47.9688 116.415C48.1768 117.769 48.2298 119.249 48.1115 120.616C47.9728 122.213 47.6139 123.793 47.0305 125.273C46.3045 127.109 45.0889 128.784 43.3104 129.557C41.181 130.481 38.8518 130.308 36.6083 130.243C36.4859 130.238 35.6008 130.191 34.9644 130.199C34.6095 130.204 34.3321 130.225 34.3158 130.286C34.2506 130.572 34.1159 130.915 34.1771 131.206C34.3852 131.254 34.585 131.28 34.7849 131.31ZM29.3556 144.079C29.7186 143.875 29.792 143.246 29.8899 142.877C30.4325 140.776 31.591 132.738 31.591 132.738C31.8275 130.928 32.0437 129.119 32.2518 127.304C32.9819 121.05 33.7611 114.757 34.275 108.511C34.6381 104.101 34.5483 98.8411 32.2926 94.974C32.056 94.5703 31.4604 93.5981 30.8934 93.8281L30.6976 94.0452C30.5916 94.3707 30.7506 94.7179 30.8771 95.0087C31.334 96.0937 31.5869 97.3133 31.8398 98.4678C33.0635 103.924 32.3048 109.479 31.9295 114.995C31.4523 122.018 28.7151 142.734 28.7151 142.734C28.6499 143.172 28.5357 144.539 29.3556 144.079ZM25.5293 144.053C25.925 143.871 25.8924 143.48 25.9372 143.094C26.4227 138.936 26.6307 134.739 27.0141 130.564C27.2059 128.407 27.3813 126.25 27.5281 124.088C28.0747 116.289 28.4622 108.468 28.7029 100.651C28.7233 99.9175 28.7233 99.184 28.7192 98.4505C28.7192 97.2873 28.6703 96.0026 28.5193 94.8438C28.4582 94.4011 28.4214 94.1363 27.9727 94.0191C27.2793 93.8412 27.0916 94.6875 26.953 95.23C26.2187 98.1336 26.3003 101.376 26.2677 104.362C26.1779 111.957 26.0678 119.561 25.6109 127.148C25.305 132.183 24.9623 137.235 24.8196 142.278C24.8073 142.716 24.7298 144.409 25.5293 144.053ZM20.1041 125.889C20.2427 131.184 20.2183 136.532 20.9403 141.783C20.9933 142.17 20.9933 142.803 21.3278 143.051C22.0906 143.611 22.1314 142.239 22.1192 141.796C22.1192 141.796 21.287 121.284 21.6256 114.249C21.8948 108.732 21.8418 103.897 24.0241 98.2856C24.4524 97.1918 24.8032 96.0026 25.3866 94.9826C25.5416 94.7136 25.7414 94.388 25.6721 94.0495L25.5008 93.8108C24.9705 93.507 24.2607 94.3924 23.9833 94.7613C21.2992 98.3073 20.0959 103.411 19.945 109.206C19.7818 115.36 19.9368 119.731 20.1041 125.889ZM17.885 117.66C17.8728 117.639 17.8687 117.6 17.8564 117.578C17.7463 117.361 17.4241 117.187 17.2323 117.074C17.163 117.035 17.0896 116.992 17.0202 116.957C14.5809 115.547 11.2033 114.449 9.96328 111.601C9.25351 109.956 9.52273 107.873 9.4901 106.068C9.44931 103.711 9.57984 101.384 9.31877 99.0321C9.27798 98.6632 8.84559 94.8524 8.00937 95.6771C7.57697 96.1024 7.86251 97.0963 7.90331 97.6475C7.97265 98.5329 7.98489 99.4184 7.97673 100.304C7.96449 102.022 7.86251 103.741 7.89923 105.46C7.91962 106.337 7.87883 107.213 7.87883 108.086C7.87883 111.562 8.94757 114.179 11.9539 115.764C13.4469 116.545 14.7644 117.469 16.3268 118.125C16.5226 118.207 16.7918 118.342 17.0569 118.424C17.2854 118.494 17.5179 118.537 17.7014 118.45C17.8157 118.398 17.8768 118.277 17.9054 118.142C17.9421 117.977 17.9299 117.799 17.885 117.66Z" fill="white"/>
<path d="M3.21632 105.664C3.35501 108.858 3.35093 112.2 4.69297 115.143C5.4109 116.714 6.55307 117.799 7.82984 118.854C10.106 120.746 12.7738 121.975 15.4007 123.181C15.7801 123.355 16.6612 123.841 17.2486 123.836C17.5994 123.836 17.8442 123.659 17.8238 123.142C17.8115 122.812 17.6524 122.5 17.371 122.352C17.3057 122.322 17.2404 122.287 17.1752 122.257C16.8733 122.105 16.5592 121.962 16.2574 121.801C15.3436 121.297 14.4014 120.846 13.4754 120.369C11.2726 119.236 8.78844 117.947 7.21389 115.89L7.10783 115.751C6.83861 115.377 6.59794 114.991 6.38174 114.587C5.47617 112.895 5.0601 110.968 4.88877 109.041C4.6481 106.319 4.54204 103.529 4.74192 100.803C4.81127 99.8437 4.92141 98.8889 5.11313 97.947C5.158 97.7474 5.21918 97.5304 5.28853 97.309C5.45577 96.7622 5.65565 96.1675 5.60262 95.6728C5.56591 95.3125 5.39051 94.974 5.01115 95.0955C3.61608 95.5295 3.36725 98.6458 3.24487 99.8611C3.04499 101.792 3.13474 103.733 3.21632 105.664Z" fill="white"/>
<path d="M0.226608 97.3914C0.809925 94.3576 2.85766 91.9705 6.19441 91.9575C8.80507 91.9488 11.2199 93.7326 11.9379 96.0199C12.717 98.4678 12.2275 102.374 12.2112 104.9C12.1989 106.667 11.999 108.077 12.6272 109.765C13.129 111.12 14.1324 112.118 15.2216 112.947C15.7886 113.376 16.3556 113.793 16.9267 114.205C16.5759 103.563 16.4331 91.7014 27.2918 91.7839C39.3702 91.875 38.4931 105.147 37.5794 113.034C37.2776 115.651 36.6942 119.548 36.0538 123.593C36.7677 123.611 37.4448 123.658 37.7303 123.624C38.485 123.528 39.2723 123.281 39.8107 122.695C40.4634 121.992 40.4226 121.159 40.6796 120.282C41.2588 118.346 41.4301 116.267 42.4703 114.509C43.0985 113.442 44.0041 112.734 45.1381 112.361L45.183 112.344C48.8542 111.267 51.5627 114.661 51.9299 118.268C52.2154 121.132 51.6035 124.297 50.4491 126.879C49.5272 128.945 48.3525 131.215 46.4883 132.465C43.0536 134.765 38.2402 134.236 34.3773 133.728C34.3365 133.993 34.2916 134.253 34.2467 134.5C33.6471 138.02 33.5288 142.144 32.4438 143.571C31.273 145.112 28.6094 146.831 25.7254 146.831C22.3764 146.831 20.3042 145.164 19.2314 142.951C18.5257 141.488 18.1463 137.083 17.9546 134.613C17.7996 132.63 17.6201 130.121 17.461 127.543C15.4051 126.623 10.4612 124.353 6.95313 122.335C2.42527 119.726 1.37285 115.143 0.895588 112.213C0.414249 109.279 -0.397503 100.634 0.226608 97.3914ZM45.3747 115.13C45.2849 115.074 45.1748 115.074 45.0361 115.16C44.771 115.325 44.669 116.028 44.62 116.324C44.4936 117.122 44.4161 117.925 44.3345 118.732C44.1101 120.942 44.0857 123.567 42.4377 125.204C41.4342 126.193 40.0514 126.484 38.7297 126.54C38.4156 126.553 36.7595 126.41 35.6051 126.345C34.981 126.31 34.4996 126.302 34.4874 126.349C34.3814 126.74 34.1652 127.183 34.569 127.395C34.8219 127.526 35.0993 127.612 35.3889 127.678C36.2863 127.877 37.3224 127.808 38.1587 127.812C39.6557 127.829 41.1854 127.634 42.5601 126.979C45.7255 125.468 45.8071 121.319 45.7703 118.172C45.7663 117.591 45.9702 115.499 45.3747 115.13ZM34.7852 131.31C35.2625 131.397 35.7356 131.454 36.217 131.493C37.2735 131.584 38.3259 131.666 39.3865 131.597C41.1935 131.484 43.0781 131.488 44.7465 130.633C45.493 130.247 46.1456 129.687 46.6963 129.032C47.7528 127.756 48.4259 126.163 48.8827 124.553C49.4171 122.665 49.6659 120.685 49.5884 118.719C49.564 118.151 49.5232 117.556 49.4334 116.975C49.3355 116.363 49.1887 115.764 48.9439 115.212C48.7808 114.848 48.3973 114.357 47.9894 114.284C47.2633 114.158 47.916 116.102 47.969 116.415C48.177 117.769 48.2301 119.249 48.1118 120.616C47.9731 122.213 47.6141 123.793 47.0308 125.273C46.3047 127.109 45.0891 128.784 43.3106 129.557C41.1813 130.481 38.8521 130.308 36.6086 130.243C36.4862 130.238 35.601 130.191 34.9647 130.199C34.6098 130.204 34.3324 130.225 34.3161 130.286C34.2508 130.572 34.1162 130.915 34.1774 131.206C34.3854 131.254 34.5853 131.28 34.7852 131.31ZM29.3558 144.079C29.7189 143.875 29.7923 143.246 29.8902 142.877C30.4327 140.776 31.5912 132.738 31.5912 132.738C31.8278 130.928 32.044 129.118 32.252 127.304C32.9822 121.05 33.7613 114.757 34.2753 108.511C34.6383 104.101 34.5486 98.8411 32.2928 94.9739C32.0562 94.5703 31.4607 93.5981 30.8937 93.8281L30.6979 94.0451C30.5918 94.3706 30.7509 94.7179 30.8774 95.0087C31.3342 96.0937 31.5871 97.3133 31.84 98.4678C33.0638 103.923 32.3051 109.479 31.9298 114.995C31.4525 122.018 28.7154 142.734 28.7154 142.734C28.6501 143.172 28.5359 144.539 29.3558 144.079ZM25.5296 144.053C25.9253 143.871 25.8926 143.48 25.9375 143.094C26.4229 138.936 26.631 134.739 27.0144 130.564C27.2061 128.407 27.3815 126.25 27.5284 124.088C28.075 116.289 28.4625 108.468 28.7032 100.651C28.7236 99.9175 28.7236 99.184 28.7195 98.4505C28.7195 97.2873 28.6705 96.0026 28.5196 94.8437C28.4584 94.401 28.4217 94.1363 27.973 94.0191C27.2795 93.8411 27.0919 94.6875 26.9532 95.23C26.219 98.1336 26.3006 101.376 26.2679 104.362C26.1782 111.957 26.068 119.561 25.6112 127.148C25.3052 132.183 24.9626 137.235 24.8198 142.278C24.8076 142.716 24.7301 144.409 25.5296 144.053ZM20.1043 125.889C20.243 131.184 20.2185 136.532 20.9405 141.783C20.9936 142.17 20.9936 142.803 21.3281 143.051C22.0909 143.611 22.1317 142.239 22.1194 141.796C22.1194 141.796 21.2873 121.284 21.6258 114.249C21.8951 108.732 21.842 103.897 24.0244 98.2855C24.4527 97.1918 24.8035 96.0026 25.3868 94.9826C25.5418 94.7135 25.7417 94.388 25.6724 94.0495L25.501 93.8108C24.9707 93.5069 24.261 94.3923 23.9836 94.7613C21.2995 98.3072 20.0962 103.411 19.9452 109.206C19.7821 115.36 19.9371 119.731 20.1043 125.889ZM17.8853 117.66C17.873 117.639 17.8689 117.6 17.8567 117.578C17.7466 117.361 17.4243 117.187 17.2326 117.074C17.1632 117.035 17.0898 116.992 17.0205 116.957C14.5811 115.547 11.2036 114.449 9.96355 111.601C9.25377 109.956 9.52299 107.873 9.49036 106.068C9.44957 103.711 9.5801 101.384 9.31904 99.0321C9.27825 98.6631 8.84586 94.8524 8.00963 95.6771C7.57724 96.1024 7.86278 97.0963 7.90357 97.6475C7.97292 98.5329 7.98516 99.4183 7.977 100.304C7.96476 102.022 7.86278 103.741 7.89949 105.46C7.91989 106.337 7.8791 107.213 7.8791 108.086C7.8791 111.562 8.94784 114.179 11.9542 115.764C13.4471 116.545 14.7647 117.469 16.327 118.125C16.5228 118.207 16.792 118.342 17.0572 118.424C17.2856 118.494 17.5181 118.537 17.7017 118.45C17.8159 118.398 17.8771 118.277 17.9057 118.142C17.9424 117.977 17.9301 117.799 17.8853 117.66ZM3.21663 105.664C3.35532 108.858 3.35124 112.2 4.69328 115.143C5.41121 116.714 6.55338 117.799 7.83015 118.854C10.1063 120.746 12.7741 121.974 15.4011 123.181C15.7804 123.355 16.6615 123.841 17.2489 123.836C17.5997 123.836 17.8445 123.658 17.8241 123.142C17.8118 122.812 17.6527 122.5 17.3713 122.352C17.306 122.322 17.2408 122.287 17.1755 122.257C16.8736 122.105 16.5595 121.961 16.2577 121.801C15.3439 121.297 14.4017 120.846 13.4757 120.369C11.273 119.236 8.78875 117.947 7.2142 115.889L7.10814 115.751C6.83892 115.377 6.59825 114.991 6.38205 114.587C5.47648 112.895 5.06041 110.968 4.88908 109.041C4.64841 106.319 4.54235 103.529 4.74223 100.803C4.81158 99.8437 4.92171 98.8888 5.11343 97.947C5.15831 97.7473 5.21949 97.5303 5.28884 97.309C5.45608 96.7621 5.65596 96.1675 5.60293 95.6727C5.56622 95.3125 5.39082 94.9739 5.01146 95.0955C3.61639 95.5295 3.36756 98.6458 3.24518 99.861C3.0453 101.792 3.13504 103.733 3.21663 105.664Z" fill="#CDCDCD"/>
</svg>
