<svg width="122" height="52" viewBox="0 0 122 52" fill="none" xmlns="http://www.w3.org/2000/svg">
<path d="M66.1567 36.0356C62.8971 36.0356 60.4578 35.1835 58.8387 33.4791C57.2196 31.7535 56.41 29.0905 56.41 25.49C56.41 21.7405 57.2196 19.0242 58.8387 17.3412C60.4578 15.6581 62.8971 14.8166 66.1567 14.8166C69.4375 14.8166 71.8769 15.6581 73.4747 17.3412C75.0938 19.0242 75.9034 21.7405 75.9034 25.49C75.9034 29.0905 75.0938 31.7535 73.4747 33.4791C71.8769 35.1835 69.4375 36.0356 66.1567 36.0356ZM66.1567 33.0956C68.3084 33.0956 69.8849 32.5098 70.8862 31.338C71.9088 30.145 72.4201 28.1957 72.4201 25.49C72.4201 22.6353 71.9088 20.6433 70.8862 19.5142C69.8849 18.3638 68.3084 17.7886 66.1567 17.7886C64.0263 17.7886 62.4498 18.3638 61.4272 19.5142C60.4259 20.6433 59.9252 22.6353 59.9252 25.49C59.9252 28.1957 60.4259 30.145 61.4272 31.338C62.4498 32.5098 64.0263 33.0956 66.1567 33.0956ZM79.3 35.7161V15.1362H88.4714C90.0479 15.1362 91.3475 15.4345 92.3701 16.031C93.3927 16.6275 94.149 17.4477 94.639 18.4916C95.129 19.5142 95.374 20.6859 95.374 22.0068C95.374 24.052 94.7349 25.6924 93.4566 26.9281C92.1997 28.1637 90.4953 28.7815 88.3436 28.7815H82.7832V35.7161H79.3ZM82.7832 26.0333H87.7045C89.0893 26.0333 90.1332 25.6711 90.8362 24.9468C91.5392 24.2224 91.8908 23.2424 91.8908 22.0068C91.8908 20.6859 91.5499 19.6633 90.8682 18.939C90.2077 18.2147 89.2064 17.8525 87.8643 17.8525H82.7832V26.0333ZM104.381 36.0356C101.718 36.0356 99.5766 35.6948 97.9575 35.013V31.9452C98.8735 32.2861 99.8535 32.563 100.897 32.7761C101.963 32.9891 103.017 33.0956 104.061 33.0956C105.702 33.0956 106.927 32.9039 107.736 32.5204C108.567 32.137 108.982 31.37 108.982 30.2196C108.982 29.5165 108.812 28.952 108.471 28.5259C108.13 28.0998 107.566 27.7376 106.777 27.4394C105.989 27.1198 104.903 26.7896 103.518 26.4487C101.302 25.8735 99.747 25.1492 98.8522 24.2757C97.9575 23.3809 97.5101 22.1559 97.5101 20.6007C97.5101 18.7899 98.1705 17.3731 99.4914 16.3505C100.812 15.3279 102.783 14.8166 105.403 14.8166C106.596 14.8166 107.715 14.9018 108.759 15.0723C109.824 15.2427 110.655 15.4345 111.251 15.6475V18.7153C109.632 18.0975 107.843 17.7886 105.883 17.7886C104.349 17.7886 103.156 17.991 102.304 18.3957C101.451 18.8005 101.025 19.5355 101.025 20.6007C101.025 21.2185 101.174 21.7192 101.473 22.1027C101.771 22.4861 102.282 22.8164 103.007 23.0933C103.752 23.3703 104.775 23.6792 106.074 24.0201C107.757 24.4461 109.057 24.9574 109.973 25.554C110.91 26.1292 111.56 26.8109 111.922 27.5992C112.306 28.3661 112.498 29.2396 112.498 30.2196C112.498 32.0304 111.827 33.4578 110.484 34.5017C109.142 35.5243 107.108 36.0356 104.381 36.0356ZM115.555 30.5711L115.364 20.2812V15.1362H118.847V20.2812L118.655 30.5711H115.555ZM115.236 35.7161V33.0956H118.943V35.7161H115.236Z" fill="#FA7176"/>
<path d="M22.8854 0.716064C24.9991 0.716064 27.0254 0.986239 28.9643 1.52659C30.9032 2.06694 32.7309 2.82978 34.4473 3.81513C36.1637 4.80047 37.7053 5.99242 39.072 7.39097C40.4388 8.78952 41.6307 10.3391 42.6479 12.0396C43.665 13.7401 44.4358 15.5598 44.9602 17.4987C45.4847 19.4376 45.7549 21.4718 45.7708 23.6014C45.7708 25.7152 45.5006 27.7415 44.9602 29.6804C44.4199 31.6193 43.657 33.4469 42.6717 35.1633C41.6864 36.8797 40.4944 38.4213 39.0959 39.7881C37.6973 41.1549 36.1478 42.3468 34.4473 43.3639C32.7468 44.3811 30.9271 45.1519 28.9882 45.6763C27.0493 46.2008 25.015 46.4709 22.8854 46.4868C20.7717 46.4868 18.7454 46.2167 16.8065 45.6763C14.8676 45.136 13.0399 44.3731 11.3235 43.3878C9.60709 42.4024 8.06551 41.2105 6.69874 39.8119C5.33198 38.4134 4.14003 36.8638 3.1229 35.1633C2.10577 33.4628 1.33498 31.6431 0.810524 29.7042C0.286067 27.7653 0.0158926 25.7311 0 23.6014C0 21.4877 0.270175 19.4614 0.810524 17.5225C1.35087 15.5836 2.11372 13.756 3.09906 12.0396C4.08441 10.3232 5.27635 8.78157 6.6749 7.41481C8.07345 6.04804 9.62299 4.85609 11.3235 3.83897C13.024 2.82184 14.8437 2.05105 16.7826 1.52659C18.7215 1.00213 20.7558 0.731957 22.8854 0.716064ZM22.8854 43.4354C24.6971 43.4354 26.4453 43.1971 28.1299 42.7203C29.8146 42.2435 31.3959 41.576 32.8739 40.7178C34.3519 39.8596 35.6948 38.8266 36.9027 37.6187C38.1105 36.4109 39.1435 35.0759 40.0017 33.6138C40.8599 32.1517 41.5274 30.5704 42.0042 28.8699C42.481 27.1693 42.7194 25.4132 42.7194 23.6014C42.7194 21.7897 42.481 20.0415 42.0042 18.3569C41.5274 16.6723 40.8599 15.0909 40.0017 13.6129C39.1435 12.1349 38.1105 10.792 36.9027 9.58415C35.6948 8.37631 34.3599 7.34329 32.8977 6.48509C31.4356 5.62689 29.8543 4.9594 28.1538 4.48262C26.4533 4.00584 24.6971 3.76745 22.8854 3.76745C21.0577 3.76745 19.3016 4.00584 17.617 4.48262C15.9324 4.9594 14.359 5.62689 12.8969 6.48509C11.4347 7.34329 10.0918 8.37631 8.86809 9.58415C7.64435 10.792 6.61133 12.127 5.76902 13.5891C4.92671 15.0512 4.25922 16.6325 3.76655 18.333C3.27388 20.0336 3.03549 21.7897 3.05138 23.6014C3.05138 25.4132 3.28977 27.1614 3.76655 28.846C4.24333 30.5306 4.91082 32.1119 5.76902 33.59C6.62723 35.068 7.66025 36.4109 8.86809 37.6187C10.0759 38.8266 11.4109 39.8596 12.873 40.7178C14.3351 41.576 15.9165 42.2435 17.617 42.7203C19.3175 43.1971 21.0736 43.4354 22.8854 43.4354ZM21.3597 12.9216H24.4111V28.1785H21.3597V12.9216ZM21.3597 31.2299H24.4111V34.2813H21.3597V31.2299Z" fill="#FA7176"/>
</svg>
